<svg width="32" height="32" viewBox="0 0 32 32" fill="none" xmlns="http://www.w3.org/2000/svg">
<path d="M17.8454 13.3134L17.9311 13.3777L18.0357 13.4012C19.2582 13.6759 20.5936 13.8333 22 13.8333C24.8268 13.8333 27.4109 13.2233 29.3063 12.2123C30.1861 11.7431 30.9437 11.1711 31.5 10.5155V10.6667C31.5 11.8161 30.6561 12.9658 29.0409 13.8806C27.443 14.7856 25.192 15.3932 22.649 15.483L22.1667 15.5V15.9827V18.6493V19.1673L22.6843 19.149C25.352 19.0548 27.7677 18.4174 29.5338 17.4169C30.3159 16.9738 30.9918 16.4456 31.5 15.847V16C31.5 17.1495 30.6561 18.2991 29.0409 19.2139C27.443 20.119 25.192 20.7265 22.649 20.8163L22.1667 20.8333V21.316V23.9827V24.5006L22.6843 24.4824C25.352 24.3882 27.7677 23.7507 29.5338 22.7502C30.3159 22.3071 30.9918 21.7789 31.5 21.1803V21.3333C31.5 22.5314 30.5811 23.7324 28.8357 24.6633C27.1118 25.5827 24.6959 26.1667 22 26.1667C21.3328 26.1667 20.6826 26.1303 20.0533 26.0629L19.8564 26.0417C20.2665 25.4201 20.5 24.735 20.5 24V21.3333H20H19.5C19.5 22.5314 18.5811 23.7324 16.8357 24.6633C15.1118 25.5827 12.6959 26.1667 10 26.1667C7.30413 26.1667 4.88819 25.5827 3.1643 24.6633C1.4189 23.7324 0.5 22.5314 0.5 21.3333V21.1821C1.05626 21.8378 1.81391 22.4098 2.6937 22.879C4.58914 23.8899 7.1732 24.5 10 24.5C12.8268 24.5 15.4109 23.8899 17.3063 22.879C19.1802 21.8796 20.5 20.4139 20.5 18.6667V16V15.8853V15.3853H20H19.9893H19.4718L19.4896 15.9026C19.4905 15.9292 19.4927 15.9523 19.4946 15.9695C19.4964 15.9853 19.4986 16.0015 19.4994 16.0079C19.4996 16.0094 19.4998 16.0108 19.5 16.012C19.4939 17.2061 18.5753 18.4022 16.8357 19.33C15.1118 20.2494 12.6959 20.8333 10 20.8333C7.30413 20.8333 4.88819 20.2494 3.1643 19.33C1.4189 18.3991 0.5 17.1981 0.5 16C0.5 14.8019 1.4189 13.6009 3.1643 12.67C4.88819 11.7506 7.30413 11.1667 10 11.1667C13.291 11.1667 16.1444 12.0379 17.8454 13.3134ZM0.5 26.6667V26.5155C1.05626 27.1711 1.81391 27.7431 2.6937 28.2123C4.58914 29.2233 7.1732 29.8333 10 29.8333C12.8268 29.8333 15.4109 29.2233 17.3063 28.2123C18.1861 27.7431 18.9437 27.1711 19.5 26.5155V26.56V26.6667C19.5 27.8648 18.5811 29.0658 16.8357 29.9967C15.1118 30.9161 12.6959 31.5 10 31.5C7.30413 31.5 4.88819 30.9161 3.1643 29.9967C1.4189 29.0658 0.5 27.8648 0.5 26.6667ZM12.5 5.33333C12.5 4.13523 13.4189 2.93423 15.1643 2.00334C16.8882 1.08392 19.3041 0.5 22 0.5C24.6959 0.5 27.1118 1.08392 28.8357 2.00334C30.5811 2.93423 31.5 4.13523 31.5 5.33333C31.5 6.53144 30.5811 7.73244 28.8357 8.66333C27.1118 9.58274 24.6959 10.1667 22 10.1667C19.3041 10.1667 16.8882 9.58274 15.1643 8.66333C13.4189 7.73244 12.5 6.53144 12.5 5.33333Z" stroke="#E82B4B"/>
</svg>
