<svg width="32" height="32" viewBox="0 0 32 32" fill="none" xmlns="http://www.w3.org/2000/svg">
<path d="M15.1667 26.1818V25.6818H14.6667H6.66736C5.25838 25.6799 3.88663 25.1484 2.78419 24.1667C1.82456 23.3121 1.12011 22.1612 0.762011 20.8636H31.238C30.8799 22.1612 30.1754 23.3121 29.2158 24.1667C28.1134 25.1484 26.7416 25.6799 25.3326 25.6818H17.3333H16.8333V26.1818V29.0909V29.5909H17.3333H22.6667C22.8729 29.5909 23.0806 29.6799 23.2409 29.8548C23.4025 30.0311 23.5 30.2789 23.5 30.5455C23.5 30.812 23.4025 31.0598 23.2409 31.2361C23.0806 31.411 22.8729 31.5 22.6667 31.5H9.33333C9.12705 31.5 8.91941 31.411 8.7591 31.2361C8.59745 31.0598 8.5 30.812 8.5 30.5455C8.5 30.2789 8.59746 30.0311 8.7591 29.8548C8.91941 29.6799 9.12705 29.5909 9.33333 29.5909H14.6667H15.1667V29.0909V26.1818ZM2.32354 2.47055C3.48365 1.20496 5.04676 0.502207 6.66701 0.5H25.333C26.9532 0.502207 28.5163 1.20496 29.6765 2.47055C30.838 3.73766 31.498 5.46421 31.5 7.27328V16.9545H0.5V7.27301C0.502051 5.46404 1.16208 3.73759 2.32354 2.47055Z" stroke="#E82B4B"/>
</svg>
