<svg width="32" height="32" viewBox="0 0 32 32" fill="none" xmlns="http://www.w3.org/2000/svg">
<path d="M9.49106 8.74953C8.95109 9.44337 8.41039 10.1652 7.86894 10.915L7.86113 10.9258L7.8539 10.937C6.11052 13.6448 4.61051 16.5014 3.37137 19.4734H0.54261L0.542639 18.6418L0.542581 18.6364C0.523415 16.8612 0.993544 15.1151 1.9014 13.5895C2.80804 12.0659 4.11627 10.8211 5.68289 9.99125C6.88862 9.3975 8.1711 8.97993 9.49106 8.74953ZM21.0632 24.1393L21.0738 24.1325L21.084 24.1251C21.8361 23.5848 22.5583 23.0458 23.2506 22.5081C23.0203 23.8283 22.6026 25.1111 22.0088 26.3171C21.1789 27.8837 19.9341 29.192 18.4105 30.0986C16.8849 31.0065 15.1388 31.4766 13.3636 31.4574V31.4574H13.3582H12.5266V28.6284C15.499 27.3872 18.3557 25.885 21.0632 24.1393ZM12.5266 24.6228C12.5177 23.2599 11.9725 21.9553 11.0086 20.9914C10.0448 20.0276 8.74031 19.4824 7.3776 19.4734C8.3654 17.241 9.52954 15.0905 10.8592 13.0423C16.8483 4.689 22.4584 0.687343 27.9976 0.500003C29.3831 0.501138 30.2195 0.787823 30.7219 1.29248C31.2246 1.79754 31.499 2.62757 31.5 3.97505C31.327 9.52291 27.3261 15.1421 18.9592 21.1461C16.9101 22.4737 14.7591 23.6362 12.5266 24.6228ZM24.5107 11.3182C24.5107 10.3028 24.1073 9.32886 23.3892 8.61081C22.6711 7.89275 21.6972 7.48935 20.6818 7.48935C19.6663 7.48935 18.6924 7.89275 17.9743 8.6108C17.2563 9.32886 16.8529 10.3028 16.8529 11.3182C16.8529 12.3337 17.2563 13.3076 17.9743 14.0257C18.6924 14.7437 19.6663 15.1471 20.6818 15.1471C21.6972 15.1471 22.6711 14.7437 23.3892 14.0257C24.1073 13.3076 24.5107 12.3337 24.5107 11.3182ZM6.70699 23.4015L6.89833 22.9396L6.70699 23.4015C7.13102 23.5772 7.51631 23.8346 7.84085 24.1591C8.1654 24.4837 8.42284 24.869 8.59848 25.293C8.77412 25.717 8.86452 26.1715 8.86452 26.6305C8.86452 27.0895 8.77412 27.5439 8.59848 27.968C8.42284 28.392 8.1654 28.7773 7.84085 29.1018C7.60051 29.3418 7.21051 29.5848 6.69989 29.8184C6.19616 30.0489 5.608 30.2555 4.99997 30.4366C3.78433 30.7985 2.5271 31.0469 1.78519 31.1787C1.78503 31.1788 1.78488 31.1788 1.78473 31.1788L0.615846 31.3842L0.821265 30.2148C0.821287 30.2147 0.82131 30.2146 0.821333 30.2145C0.95239 29.473 1.20081 28.2157 1.56291 27.0001C1.74402 26.3921 1.95081 25.8039 2.18136 25.3002C2.41507 24.7896 2.65813 24.3995 2.89816 24.1591C3.5536 23.5037 4.44257 23.1355 5.36951 23.1355C5.82848 23.1355 6.28296 23.2259 6.70699 23.4015Z" stroke="#E82B4B"/>
</svg>
