<svg width="12" height="16" viewBox="0 0 12 16" fill="none" xmlns="http://www.w3.org/2000/svg">
<path d="M11.4286 16H10.1587V12.638C10.1582 12.1153 9.96026 11.6142 9.60828 11.2446C9.2563 10.8751 8.77905 10.6672 8.28127 10.6667H3.1473C2.64952 10.6672 2.17228 10.8751 1.82029 11.2446C1.46831 11.6142 1.27035 12.1153 1.26984 12.638V16H0V12.638C0.00100814 11.7619 0.332922 10.9219 0.922937 10.3024C1.51295 9.6829 2.31289 9.33439 3.1473 9.33333H8.28127C9.11568 9.33439 9.91562 9.6829 10.5056 10.3024C11.0957 10.9219 11.4276 11.7619 11.4286 12.638V16Z" fill="#E82B4B"/>
<path d="M5.71429 8C4.96083 8 4.2243 7.7654 3.59783 7.32588C2.97135 6.88635 2.48308 6.26164 2.19474 5.53073C1.90641 4.79983 1.83097 3.99556 1.97796 3.21964C2.12495 2.44372 2.48777 1.73098 3.02055 1.17157C3.55332 0.612165 4.23211 0.231202 4.97109 0.0768607C5.71006 -0.0774802 6.47603 0.00173314 7.17213 0.304484C7.86823 0.607234 8.46319 1.11992 8.88179 1.77772C9.30039 2.43552 9.52381 3.20888 9.52381 4C9.5228 5.06054 9.12112 6.07734 8.40691 6.82726C7.69271 7.57717 6.72433 7.99894 5.71429 8ZM5.71429 1.33333C5.21198 1.33333 4.72096 1.48973 4.30331 1.78275C3.88567 2.07577 3.56015 2.49224 3.36792 2.97951C3.1757 3.46678 3.12541 4.00296 3.2234 4.52024C3.3214 5.03752 3.56328 5.51268 3.91846 5.88562C4.27364 6.25856 4.72617 6.51253 5.21882 6.61543C5.71147 6.71832 6.22211 6.66551 6.68618 6.46368C7.15025 6.26185 7.54689 5.92005 7.82595 5.48152C8.10502 5.04299 8.25397 4.52742 8.25397 4C8.25397 3.29276 7.9864 2.61448 7.51011 2.11438C7.03383 1.61429 6.38785 1.33333 5.71429 1.33333Z" fill="#E82B4B"/>
</svg>
